<svg width="48" height="48" viewBox="0 0 48 48" fill="none" xmlns="http://www.w3.org/2000/svg">
<mask id="mask0_160_1329" style="mask-type:alpha" maskUnits="userSpaceOnUse" x="0" y="0" width="48" height="48">
<rect width="48" height="48" fill="#D9D9D9"/>
</mask>
<g mask="url(#mask0_160_1329)">
<path d="M17.5 44.85C15.9667 44.85 14.5917 44.45 13.375 43.65C12.1583 42.85 11.2167 41.75 10.55 40.35C10.0167 41.05 9.34167 41.5916 8.525 41.975C7.70833 42.3583 6.86667 42.55 6 42.55C4.3 42.55 2.875 41.9666 1.725 40.8C0.575 39.6333 0 38.2166 0 36.55C0 35.1166 0.466667 33.825 1.4 32.675C2.33333 31.525 3.51667 30.8666 4.95 30.7C4.48333 30.0333 4.125 29.325 3.875 28.575C3.625 27.825 3.5 27.0333 3.5 26.2C3.5 24.8666 3.84167 23.6166 4.525 22.45C5.20833 21.2833 6.16667 20.3333 7.4 19.6C7.56667 20.2 7.79167 20.8416 8.075 21.525C8.35833 22.2083 8.68333 22.8 9.05 23.3C8.58333 23.6666 8.21667 24.1083 7.95 24.625C7.68333 25.1416 7.55 25.6833 7.55 26.25C7.55 28.1166 8.31667 29.2666 9.85 29.7C11.3833 30.1333 12.8333 30.4833 14.2 30.75L15.15 32.35C14.7833 33.4166 14.4667 34.325 14.2 35.075C13.9333 35.825 13.8 36.5 13.8 37.1C13.8 38.1 14.1583 38.975 14.875 39.725C15.5917 40.475 16.4667 40.85 17.5 40.85C18.7667 40.85 19.8167 40.2833 20.65 39.15C21.4833 38.0166 22.1667 36.6833 22.7 35.15C23.2333 33.6166 23.6417 32.0666 23.925 30.5C24.2083 28.9333 24.4333 27.7333 24.6 26.9L28.5 27.95C28.2 29.45 27.8333 31.1666 27.4 33.1C26.9667 35.0333 26.3583 36.875 25.575 38.625C24.7917 40.375 23.7583 41.85 22.475 43.05C21.1917 44.25 19.5333 44.85 17.5 44.85ZM6 38.55C6.56667 38.55 7.04167 38.3583 7.425 37.975C7.80833 37.5916 8 37.1166 8 36.55C8 35.9833 7.80833 35.5083 7.425 35.125C7.04167 34.7416 6.56667 34.55 6 34.55C5.43333 34.55 4.95833 34.7416 4.575 35.125C4.19167 35.5083 4 35.9833 4 36.55C4 37.1166 4.19167 37.5916 4.575 37.975C4.95833 38.3583 5.43333 38.55 6 38.55ZM20.2 30.65C18.6667 29.2833 17.275 28.0083 16.025 26.825C14.775 25.6416 13.7 24.4916 12.8 23.375C11.9 22.2583 11.2083 21.1416 10.725 20.025C10.2417 18.9083 10 17.75 10 16.55C10 14.3833 10.7417 12.5583 12.225 11.075C13.7083 9.59164 15.5333 8.84998 17.7 8.84998C17.8333 8.84998 17.95 8.85831 18.05 8.87498C18.15 8.89164 18.2667 8.89998 18.4 8.89998C18.2667 8.56664 18.1667 8.23331 18.1 7.89998C18.0333 7.56664 18 7.21664 18 6.84998C18 5.18331 18.5833 3.76664 19.75 2.59998C20.9167 1.43331 22.3333 0.849976 24 0.849976C25.6667 0.849976 27.0833 1.43331 28.25 2.59998C29.4167 3.76664 30 5.18331 30 6.84998C30 7.21664 29.9667 7.55831 29.9 7.87498C29.8333 8.19164 29.7333 8.51664 29.6 8.84998H30.3C32.3 8.84998 34 9.49164 35.4 10.775C36.8 12.0583 37.6333 13.65 37.9 15.55C37.3 15.45 36.625 15.4 35.875 15.4C35.125 15.4 34.4333 15.4333 33.8 15.5C33.5667 14.7333 33.1417 14.1 32.525 13.6C31.9083 13.1 31.1667 12.85 30.3 12.85C29.1333 12.85 28.225 13.1916 27.575 13.875C26.925 14.5583 26.0333 15.55 24.9 16.85H23.05C21.8833 15.4833 20.975 14.475 20.325 13.825C19.675 13.175 18.8 12.85 17.7 12.85C16.6333 12.85 15.75 13.2 15.05 13.9C14.35 14.6 14 15.4833 14 16.55C14 17.3166 14.2167 18.1083 14.65 18.925C15.0833 19.7416 15.6917 20.6083 16.475 21.525C17.2583 22.4416 18.2083 23.4166 19.325 24.45C20.4417 25.4833 21.6833 26.6 23.05 27.8L20.2 30.65ZM24 8.84998C24.5667 8.84998 25.0417 8.65831 25.425 8.27498C25.8083 7.89164 26 7.41664 26 6.84998C26 6.28331 25.8083 5.80831 25.425 5.42498C25.0417 5.04164 24.5667 4.84998 24 4.84998C23.4333 4.84998 22.9583 5.04164 22.575 5.42498C22.1917 5.80831 22 6.28331 22 6.84998C22 7.41664 22.1917 7.89164 22.575 8.27498C22.9583 8.65831 23.4333 8.84998 24 8.84998ZM30.45 44.85C29.7167 44.85 28.9917 44.75 28.275 44.55C27.5583 44.35 26.8667 44.0333 26.2 43.6C26.5667 43.1333 26.9333 42.5833 27.3 41.95C27.6667 41.3166 28 40.7333 28.3 40.2C28.6667 40.4333 29.0333 40.6 29.4 40.7C29.7667 40.8 30.1333 40.85 30.5 40.85C31.5667 40.85 32.4583 40.475 33.175 39.725C33.8917 38.975 34.25 38.0833 34.25 37.05C34.25 36.4166 34.1167 35.7333 33.85 35C33.5833 34.2666 33.2667 33.3666 32.9 32.3L33.85 30.7C35.25 30.4333 36.7083 30.0833 38.225 29.65C39.7417 29.2166 40.5 28.0666 40.5 26.2C40.5 24.8666 40.0083 23.9 39.025 23.3C38.0417 22.7 36.9667 22.4 35.8 22.4C34.4 22.4 32.7667 22.6666 30.9 23.2C29.0333 23.7333 26.85 24.4166 24.35 25.25L23.3 21.35C25.9 20.5166 28.2167 19.8166 30.25 19.25C32.2833 18.6833 34.15 18.4 35.85 18.4C38.15 18.4 40.1667 19.0833 41.9 20.45C43.6333 21.8166 44.5 23.7333 44.5 26.2C44.5 27.0333 44.375 27.825 44.125 28.575C43.875 29.325 43.5167 30.0333 43.05 30.7C44.4833 30.8666 45.6667 31.525 46.6 32.675C47.5333 33.825 48 35.1166 48 36.55C48 38.2166 47.425 39.6333 46.275 40.8C45.125 41.9666 43.7 42.55 42 42.55C41.1333 42.55 40.2917 42.3583 39.475 41.975C38.6583 41.5916 37.9833 41.05 37.45 40.35C36.7833 41.75 35.8417 42.85 34.625 43.65C33.4083 44.45 32.0167 44.85 30.45 44.85ZM42.05 38.55C42.6167 38.55 43.0833 38.3583 43.45 37.975C43.8167 37.5916 44 37.1166 44 36.55C44 35.9833 43.8083 35.5 43.425 35.1C43.0417 34.7 42.5667 34.5 42 34.5C41.4333 34.5 40.9583 34.6916 40.575 35.075C40.1917 35.4583 40 35.9333 40 36.5C40 37.0666 40.2 37.55 40.6 37.95C41 38.35 41.4833 38.55 42.05 38.55Z" fill="#FF6636"/>
</g>
</svg>
