<svg width="48" height="48" viewBox="0 0 48 48" fill="none" xmlns="http://www.w3.org/2000/svg">
<mask id="mask0_160_1311" style="mask-type:alpha" maskUnits="userSpaceOnUse" x="0" y="0" width="48" height="48">
<rect width="48" height="48" fill="#D9D9D9"/>
</mask>
<g mask="url(#mask0_160_1311)">
<path d="M12 46V29.55L5.5 19L14.75 4H33.25L42.5 19L36 29.55V46L24 42L12 46ZM16 40.45L24 37.8L32 40.45V34H16V40.45ZM17 8L10.2 19L17 30H31L37.8 19L31 8H17ZM21.9 27.15L14.8 20.1L17.65 17.25L21.9 21.5L30.35 13L33.2 15.8L21.9 27.15Z" fill="#FF6636"/>
</g>
</svg>

