<svg width="89" height="24" viewBox="0 0 89 24" fill="none" xmlns="http://www.w3.org/2000/svg">
<path d="M10.875 18.75C15.2242 18.75 18.75 15.2242 18.75 10.875C18.75 6.52576 15.2242 3 10.875 3C6.52576 3 3 6.52576 3 10.875C3 15.2242 6.52576 18.75 10.875 18.75Z" stroke="#1D2026" stroke-width="1.5" stroke-linecap="round" stroke-linejoin="round"/>
<path d="M16.4431 16.4438L20.9994 21.0002" stroke="#1D2026" stroke-width="1.5" stroke-linecap="round" stroke-linejoin="round"/>
<path d="M43.7727 9.27273C43.7045 8.69697 43.428 8.25 42.9432 7.93182C42.4583 7.61364 41.8636 7.45455 41.1591 7.45455C40.6439 7.45455 40.1932 7.53788 39.8068 7.70455C39.4242 7.87121 39.125 8.10038 38.9091 8.39205C38.697 8.68371 38.5909 9.01515 38.5909 9.38636C38.5909 9.69697 38.6648 9.96401 38.8125 10.1875C38.964 10.4072 39.1572 10.5909 39.392 10.7386C39.6269 10.8826 39.8731 11.0019 40.1307 11.0966C40.3883 11.1875 40.625 11.2614 40.8409 11.3182L42.0227 11.6364C42.3258 11.7159 42.6629 11.8258 43.0341 11.9659C43.4091 12.1061 43.767 12.2973 44.108 12.5398C44.4527 12.7784 44.7367 13.0852 44.9602 13.4602C45.1837 13.8352 45.2955 14.2955 45.2955 14.8409C45.2955 15.4697 45.1307 16.0379 44.8011 16.5455C44.4754 17.053 43.9981 17.4564 43.3693 17.7557C42.7443 18.0549 41.9848 18.2045 41.0909 18.2045C40.2576 18.2045 39.536 18.0701 38.9261 17.8011C38.3201 17.5322 37.8428 17.1572 37.4943 16.6761C37.1496 16.1951 36.9545 15.6364 36.9091 15H38.3636C38.4015 15.4394 38.5492 15.803 38.8068 16.0909C39.0682 16.375 39.3977 16.5871 39.7955 16.7273C40.197 16.8636 40.6288 16.9318 41.0909 16.9318C41.6288 16.9318 42.1117 16.8447 42.5398 16.6705C42.9678 16.4924 43.3068 16.2462 43.5568 15.9318C43.8068 15.6136 43.9318 15.2424 43.9318 14.8182C43.9318 14.4318 43.8239 14.1174 43.608 13.875C43.392 13.6326 43.108 13.4356 42.7557 13.2841C42.4034 13.1326 42.0227 13 41.6136 12.8864L40.1818 12.4773C39.2727 12.2159 38.553 11.8428 38.0227 11.358C37.4924 10.8731 37.2273 10.2386 37.2273 9.45455C37.2273 8.80303 37.4034 8.23485 37.7557 7.75C38.1117 7.26136 38.589 6.88258 39.1875 6.61364C39.7898 6.34091 40.4621 6.20455 41.2045 6.20455C41.9545 6.20455 42.6212 6.33901 43.2045 6.60795C43.7879 6.87311 44.25 7.23674 44.5909 7.69886C44.9356 8.16098 45.1174 8.68561 45.1364 9.27273H43.7727ZM51.0895 18.1818C50.2486 18.1818 49.5232 17.9962 48.9134 17.625C48.3073 17.25 47.8395 16.7273 47.5099 16.0568C47.1842 15.3826 47.0213 14.5985 47.0213 13.7045C47.0213 12.8106 47.1842 12.0227 47.5099 11.3409C47.8395 10.6553 48.2978 10.1212 48.8849 9.73864C49.4759 9.35227 50.1652 9.15909 50.9531 9.15909C51.4077 9.15909 51.8565 9.23485 52.2997 9.38636C52.7429 9.53788 53.1463 9.78409 53.5099 10.125C53.8736 10.4621 54.1634 10.9091 54.3793 11.4659C54.5952 12.0227 54.7031 12.7083 54.7031 13.5227V14.0909H47.9759V12.9318H53.3395C53.3395 12.4394 53.241 12 53.044 11.6136C52.8509 11.2273 52.5743 10.9223 52.2145 10.6989C51.8584 10.4754 51.438 10.3636 50.9531 10.3636C50.419 10.3636 49.9569 10.4962 49.5668 10.7614C49.1804 11.0227 48.883 11.3636 48.6747 11.7841C48.4664 12.2045 48.3622 12.6553 48.3622 13.1364V13.9091C48.3622 14.5682 48.4759 15.1269 48.7031 15.5852C48.9342 16.0398 49.2543 16.3864 49.6634 16.625C50.0724 16.8598 50.5478 16.9773 51.0895 16.9773C51.4418 16.9773 51.7599 16.928 52.044 16.8295C52.3319 16.7273 52.58 16.5758 52.7884 16.375C52.9967 16.1705 53.1577 15.9167 53.2713 15.6136L54.5668 15.9773C54.4304 16.4167 54.2012 16.803 53.8793 17.1364C53.5573 17.4659 53.1596 17.7235 52.6861 17.9091C52.2126 18.0909 51.6804 18.1818 51.0895 18.1818ZM59.3111 18.2045C58.758 18.2045 58.2562 18.1004 57.8054 17.892C57.3546 17.6799 56.9967 17.375 56.7315 16.9773C56.4664 16.5758 56.3338 16.0909 56.3338 15.5227C56.3338 15.0227 56.4323 14.6174 56.6293 14.3068C56.8262 13.9924 57.0895 13.7462 57.419 13.5682C57.7486 13.3902 58.1122 13.2576 58.5099 13.1705C58.9115 13.0795 59.3149 13.0076 59.7202 12.9545C60.2505 12.8864 60.6804 12.8352 61.0099 12.8011C61.3433 12.7633 61.5857 12.7008 61.7372 12.6136C61.8925 12.5265 61.9702 12.375 61.9702 12.1591V12.1136C61.9702 11.553 61.8168 11.1174 61.5099 10.8068C61.2069 10.4962 60.7467 10.3409 60.1293 10.3409C59.4891 10.3409 58.9872 10.4811 58.6236 10.7614C58.2599 11.0417 58.0043 11.3409 57.8565 11.6591L56.5838 11.2045C56.8111 10.6742 57.1141 10.2614 57.4929 9.96591C57.8755 9.66667 58.2921 9.45833 58.7429 9.34091C59.1974 9.2197 59.6444 9.15909 60.0838 9.15909C60.3641 9.15909 60.6861 9.19318 61.0497 9.26136C61.4171 9.32576 61.7713 9.46023 62.1122 9.66477C62.4569 9.86932 62.7429 10.178 62.9702 10.5909C63.1974 11.0038 63.3111 11.5568 63.3111 12.25V18H61.9702V16.8182H61.902C61.8111 17.0076 61.6596 17.2102 61.4474 17.4261C61.2353 17.642 60.9531 17.8258 60.6009 17.9773C60.2486 18.1288 59.8187 18.2045 59.3111 18.2045ZM59.5156 17C60.0459 17 60.4929 16.8958 60.8565 16.6875C61.224 16.4792 61.5005 16.2102 61.6861 15.8807C61.8755 15.5511 61.9702 15.2045 61.9702 14.8409V13.6136C61.9134 13.6818 61.7884 13.7443 61.5952 13.8011C61.4058 13.8542 61.1861 13.9015 60.9361 13.9432C60.6899 13.9811 60.4493 14.0152 60.2145 14.0455C59.9834 14.072 59.7959 14.0947 59.652 14.1136C59.3035 14.1591 58.9777 14.233 58.6747 14.3352C58.3755 14.4337 58.133 14.5833 57.9474 14.7841C57.7656 14.9811 57.6747 15.25 57.6747 15.5909C57.6747 16.0568 57.8471 16.4091 58.1918 16.6477C58.5402 16.8826 58.9815 17 59.5156 17ZM65.7585 18V9.27273H67.054V10.5909H67.1449C67.304 10.1591 67.5919 9.80871 68.0085 9.53977C68.4252 9.27083 68.8949 9.13636 69.4176 9.13636C69.5161 9.13636 69.6392 9.13826 69.7869 9.14205C69.9347 9.14583 70.0464 9.15152 70.1222 9.15909V10.5227C70.0767 10.5114 69.9725 10.4943 69.8097 10.4716C69.6506 10.4451 69.482 10.4318 69.304 10.4318C68.8797 10.4318 68.5009 10.5208 68.1676 10.6989C67.8381 10.8731 67.5767 11.1155 67.3835 11.4261C67.1941 11.733 67.0994 12.0833 67.0994 12.4773V18H65.7585ZM74.9915 18.1818C74.1733 18.1818 73.4688 17.9886 72.8778 17.6023C72.2869 17.2159 71.8324 16.6837 71.5142 16.0057C71.196 15.3277 71.0369 14.553 71.0369 13.6818C71.0369 12.7955 71.1998 12.0133 71.5256 11.3352C71.8551 10.6534 72.3134 10.1212 72.9006 9.73864C73.4915 9.35227 74.1809 9.15909 74.9688 9.15909C75.5824 9.15909 76.1354 9.27273 76.6278 9.5C77.1203 9.72727 77.5237 10.0455 77.8381 10.4545C78.1525 10.8636 78.3475 11.3409 78.4233 11.8864H77.0824C76.9801 11.4886 76.7528 11.1364 76.4006 10.8295C76.0521 10.5189 75.5824 10.3636 74.9915 10.3636C74.4688 10.3636 74.0104 10.5 73.6165 10.7727C73.2263 11.0417 72.9214 11.4223 72.7017 11.9148C72.4858 12.4034 72.3778 12.9773 72.3778 13.6364C72.3778 14.3106 72.4839 14.8977 72.696 15.3977C72.9119 15.8977 73.215 16.286 73.6051 16.5625C73.9991 16.839 74.4612 16.9773 74.9915 16.9773C75.34 16.9773 75.6562 16.9167 75.9403 16.7955C76.2244 16.6742 76.465 16.5 76.6619 16.2727C76.8589 16.0455 76.9991 15.7727 77.0824 15.4545H78.4233C78.3475 15.9697 78.16 16.4337 77.8608 16.8466C77.5653 17.2557 77.1733 17.5814 76.6847 17.8239C76.1998 18.0625 75.6354 18.1818 74.9915 18.1818ZM81.7244 12.75V18H80.3835V6.36364H81.7244V10.6364H81.8381C82.0426 10.1856 82.3494 9.82765 82.7585 9.5625C83.1714 9.29356 83.7206 9.15909 84.4062 9.15909C85.0009 9.15909 85.5218 9.27841 85.9688 9.51705C86.4157 9.75189 86.7623 10.1136 87.0085 10.6023C87.2585 11.0871 87.3835 11.7045 87.3835 12.4545V18H86.0426V12.5455C86.0426 11.8523 85.8627 11.3163 85.5028 10.9375C85.1468 10.5549 84.6525 10.3636 84.0199 10.3636C83.5805 10.3636 83.1866 10.4564 82.8381 10.642C82.4934 10.8277 82.2206 11.0985 82.0199 11.4545C81.8229 11.8106 81.7244 12.2424 81.7244 12.75Z" fill="#8C94A3"/>
</svg>
